<svg id="Layer_1" data-name="Layer 1" xmlns="http://www.w3.org/2000/svg" viewBox="0 0 201.4 114.37"><defs><style>.cls-1{fill:none;}.cls-2,.cls-3{fill:#010101;}.cls-2,.cls-4{stroke:#010101;stroke-miterlimit:10;}.cls-2{stroke-width:0.25px;}.cls-4{fill:#fff;stroke-width:4px;}</style></defs><path class="cls-1" d="M164.5,74.3a22.34,22.34,0,0,1-7.55-9V97.77A104.26,104.26,0,0,0,185.4,76a24.68,24.68,0,0,1-9.15,1.71A20.12,20.12,0,0,1,164.5,74.3Z" transform="translate(-0.8 -0.38)"/><path class="cls-1" d="M107.65,69.87a19.62,19.62,0,0,0,10.55,3,19.36,19.36,0,0,0,10.73-3.07,22.56,22.56,0,0,0,7.57-8.1,22.16,22.16,0,0,0,2.8-11,22.64,22.64,0,0,0-10.37-19.17,20.37,20.37,0,0,0-21.51,0,22.13,22.13,0,0,0-7.54,8.12A22.5,22.5,0,0,0,97.1,50.7,22,22,0,0,0,100,61.89,22.33,22.33,0,0,0,107.65,69.87Z" transform="translate(-0.8 -0.38)"/><path class="cls-1" d="M166,70.37a17.14,17.14,0,0,0,10.27,3,20.39,20.39,0,0,0,10.75-3,22.85,22.85,0,0,0,7.92-8.07,22.12,22.12,0,0,0,3-11.42,22.57,22.57,0,0,0-10.73-19.37,20.5,20.5,0,0,0-10.93-3,17.25,17.25,0,0,0-10.19,3,19.18,19.18,0,0,0-6.54,8.07,27.48,27.48,0,0,0-2.27,11.32,27.68,27.68,0,0,0,2.25,11.26A19.32,19.32,0,0,0,166,70.37Z" transform="translate(-0.8 -0.38)"/><path class="cls-1" d="M27.51,72.89a18.31,18.31,0,0,0,10.57-3,19.27,19.27,0,0,0,6.67-8.06A26.47,26.47,0,0,0,47.06,50.7a26.74,26.74,0,0,0-2.33-11.3,19.11,19.11,0,0,0-6.73-8,18.29,18.29,0,0,0-10.49-3,21.52,21.52,0,0,0-11.2,3,22.72,22.72,0,0,0-8.07,8.08,21.5,21.5,0,0,0-3,11.22A21.09,21.09,0,0,0,8.31,62a23.15,23.15,0,0,0,8.16,8A21.46,21.46,0,0,0,27.51,72.89Z" transform="translate(-0.8 -0.38)"/><path class="cls-2" d="M194.58,69.88a26.11,26.11,0,0,1-8.27,5.76c-.3.14-.6.26-.91.38A104.26,104.26,0,0,1,157,97.77v3.91h-4.24v-.09l-.51.27v-1.18h.51v-.8a119.32,119.32,0,0,1-51,11.25c-34.37,0-65-14.13-84.51-36h0a26.94,26.94,0,0,1-8.5-5.71,25.87,25.87,0,0,1-2.61-3c19,28.82,54.76,48.27,95.65,48.27,40.1,0,75.27-18.71,94.54-46.61C195.71,68.66,195.16,69.28,194.58,69.88Z" transform="translate(-0.8 -0.38)"/><path class="cls-3" d="M6,66.35q-1.23-1.86-2.37-3.77A26.58,26.58,0,0,0,6,66.35Z" transform="translate(-0.8 -0.38)"/><path class="cls-3" d="M27.51,77.17a21.22,21.22,0,0,0,12.11-3.4,22.35,22.35,0,0,0,7.75-8.93v11h4.37V.38H47.37V36.46a22.35,22.35,0,0,0-7.75-8.93,21.15,21.15,0,0,0-12.11-3.4,26.18,26.18,0,0,0-10.36,2.06,27.11,27.11,0,0,0-8.5,5.71,26.77,26.77,0,0,0-5.77,8.46A25.64,25.64,0,0,0,.85,49,89.09,89.09,0,0,0,17.18,75.11,26,26,0,0,0,27.51,77.17ZM8.31,62A21.09,21.09,0,0,1,5.22,50.7a21.5,21.5,0,0,1,3-11.22,22.72,22.72,0,0,1,8.07-8.08,21.52,21.52,0,0,1,11.2-3,18.29,18.29,0,0,1,10.49,3,19.11,19.11,0,0,1,6.73,8,26.74,26.74,0,0,1,2.33,11.3,26.47,26.47,0,0,1-2.31,11.14,19.27,19.27,0,0,1-6.67,8.06,18.31,18.31,0,0,1-10.57,3,21.46,21.46,0,0,1-11-3A23.15,23.15,0,0,1,8.31,62Z" transform="translate(-0.8 -0.38)"/><path class="cls-3" d="M17.15,75.1h0A89.09,89.09,0,0,1,.85,49c0,.56,0,1.13,0,1.7A25.33,25.33,0,0,0,2.88,61c.24.56.52,1.08.79,1.62Q4.81,64.49,6,66.35a25.87,25.87,0,0,0,2.61,3A26.94,26.94,0,0,0,17.15,75.1Z" transform="translate(-0.8 -0.38)"/><path class="cls-3" d="M75.41,46.5a16.38,16.38,0,0,1,2.32-8.58A17.57,17.57,0,0,1,84,31.76a16.75,16.75,0,0,1,8.71-2.32,16.06,16.06,0,0,1,4.34.61l1.83-4.18a21.82,21.82,0,0,0-5.76-.76,20.7,20.7,0,0,0-10.24,2.62,20.36,20.36,0,0,0-7.45,7v-8.2H71V76.84h4.38Z" transform="translate(-0.8 -0.38)"/><path class="cls-3" d="M199.17,63.49c-.94,1.53-1.91,3-2.94,4.52A26.37,26.37,0,0,0,199.17,63.49Z" transform="translate(-0.8 -0.38)"/><path class="cls-3" d="M157,65.29a22.34,22.34,0,0,0,7.55,9,20.12,20.12,0,0,0,11.75,3.43A24.68,24.68,0,0,0,185.4,76,89.66,89.66,0,0,0,202.18,49.9a26.49,26.49,0,0,0-2-9.33,27.37,27.37,0,0,0-5.6-8.5,26.43,26.43,0,0,0-8.27-5.76,24.46,24.46,0,0,0-10.06-2.08,20.05,20.05,0,0,0-11.75,3.43,22.21,22.21,0,0,0-7.55,9V25.55h-4.24V99.88q2.16-1,4.24-2.11Zm2.57-25.68a19.18,19.18,0,0,1,6.54-8.07,17.25,17.25,0,0,1,10.19-3,20.5,20.5,0,0,1,10.93,3,22.57,22.57,0,0,1,10.73,19.37,22.12,22.12,0,0,1-3,11.42A22.85,22.85,0,0,1,187,70.42a20.39,20.39,0,0,1-10.75,3,17.14,17.14,0,0,1-10.27-3,19.32,19.32,0,0,1-6.48-8.18,27.68,27.68,0,0,1-2.25-11.26A27.48,27.48,0,0,1,159.52,39.61Z" transform="translate(-0.8 -0.38)"/><path class="cls-3" d="M154.47,100.68l-1.76.91v.09H157V97.77q-2.08,1.1-4.24,2.11v.8Z" transform="translate(-0.8 -0.38)"/><path class="cls-3" d="M186.31,75.64a26.11,26.11,0,0,0,8.27-5.76c.58-.6,1.13-1.22,1.65-1.87,1-1.48,2-3,2.94-4.52.36-.7.7-1.42,1-2.16a26.81,26.81,0,0,0,2-10.4c0-.35,0-.69,0-1A89.66,89.66,0,0,1,185.4,76C185.71,75.9,186,75.78,186.31,75.64Z" transform="translate(-0.8 -0.38)"/><polygon class="cls-3" points="151.4 100.3 151.4 101.48 151.91 101.22 151.91 100.3 151.4 100.3"/><polygon class="cls-3" points="151.91 100.3 151.91 101.22 153.67 100.3 151.91 100.3"/><path class="cls-4" d="M137.87,60a17.48,17.48,0,1,1-35,0c0-9.66,17.16-34.17,17.16-34.17S137.87,50.38,137.87,60Z" transform="translate(-0.8 -0.38)"/></svg>